<svg width="26" height="26" viewBox="0 0 26 26" fill="none" xmlns="http://www.w3.org/2000/svg">
    <path fill-rule="evenodd" clip-rule="evenodd" d="M13 5C8.58172 5 5 8.58172 5 13C5 17.4183 8.58172 21 13 21C17.4183 21 21 17.4183 21 13C21 8.58172 17.4183 5 13 5ZM3 13C3 7.47715 7.47715 3 13 3C18.5228 3 23 7.47715 23 13C23 18.5228 18.5228 23 13 23C7.47715 23 3 18.5228 3 13Z" fill="#868686"/>
    <path fill-rule="evenodd" clip-rule="evenodd" d="M7 13C7 12.4477 7.44772 12 8 12H18C18.5523 12 19 12.4477 19 13C19 13.5523 18.5523 14 18 14H8C7.44772 14 7 13.5523 7 13Z" fill="#868686"/>
    <path fill-rule="evenodd" clip-rule="evenodd" d="M13 7C13.5523 7 14 7.44772 14 8L14 18C14 18.5523 13.5523 19 13 19C12.4477 19 12 18.5523 12 18L12 8C12 7.44772 12.4477 7 13 7Z" fill="#868686"/>
    <path fill-rule="evenodd" clip-rule="evenodd" d="M10 21L10 22.5C10 24.433 8.433 26 6.5 26C4.567 26 3 24.433 3 22.5L3 3.5C3 1.567 4.567 -1.18275e-07 6.5 -1.5299e-07C8.433 -1.87705e-07 10 1.567 10 3.5L10 5C10 5.55228 9.55228 6 9 6C8.44771 6 8 5.55228 8 5L8 3.5C8 2.67157 7.32843 2 6.5 2C5.67157 2 5 2.67157 5 3.5L5 22.5C5 23.3284 5.67157 24 6.5 24C7.32843 24 8 23.3284 8 22.5L8 21C8 20.4477 8.44771 20 9 20C9.55228 20 10 20.4477 10 21Z" fill="#868686"/>
</svg>
