<?xml version="1.0" encoding="UTF-8" standalone="no"?>
<svg
   xmlns:dc="http://purl.org/dc/elements/1.1/"
   xmlns:cc="http://creativecommons.org/ns#"
   xmlns:rdf="http://www.w3.org/1999/02/22-rdf-syntax-ns#"
   xmlns:svg="http://www.w3.org/2000/svg"
   xmlns="http://www.w3.org/2000/svg"
   xmlns:sodipodi="http://sodipodi.sourceforge.net/DTD/sodipodi-0.dtd"
   xmlns:inkscape="http://www.inkscape.org/namespaces/inkscape"
   inkscape:version="1.0 (4035a4fb49, 2020-05-01)"
   sodipodi:docname="diamond-primary.svg"
   id="svg28"
   version="1.1"
   fill="none"
   viewBox="0 0 319 319"
   height="319"
   width="319">
  <metadata
     id="metadata34">
    <rdf:RDF>
      <cc:Work
         rdf:about="">
        <dc:format>image/svg+xml</dc:format>
        <dc:type
           rdf:resource="http://purl.org/dc/dcmitype/StillImage" />
      </cc:Work>
    </rdf:RDF>
  </metadata>
  <defs
     id="defs32" />
  <sodipodi:namedview
     inkscape:current-layer="svg28"
     inkscape:window-maximized="1"
     inkscape:window-y="-9"
     inkscape:window-x="-9"
     inkscape:cy="159.5"
     inkscape:cx="159.5"
     inkscape:zoom="2.6018809"
     showgrid="false"
     id="namedview30"
     inkscape:window-height="1001"
     inkscape:window-width="1920"
     inkscape:pageshadow="2"
     inkscape:pageopacity="0"
     guidetolerance="10"
     gridtolerance="10"
     objecttolerance="10"
     borderopacity="1"
     bordercolor="#666666"
     pagecolor="#ffffff" />
  <circle
     style="fill:#f4e3d7"
     id="circle2"
     fill="#27043C"
     r="159.5"
     cy="159.5"
     cx="159.5" />
  <path
     id="path4"
     fill="black"
     d="M150.983 106.68H79.4414L118.774 65.0625L150.983 106.68Z" />
  <path
     style="fill:#786721"
     id="path6"
     fill="white"
     d="M150.983 106.68H79.4414L118.774 65.0625L150.983 106.68Z" />
  <path
     id="path8"
     fill="black"
     d="M118.285 115.625H76L151.669 279.001L118.285 115.625Z" />
  <path
     style="fill:#e9c6af"
     id="path10"
     fill="white"
     d="M118.285 115.625H76L151.669 279.001L118.285 115.625Z" />
  <path
     id="path12"
     fill="black"
     d="M192.944 115.625H127.25L160.246 275.561L192.944 115.625Z" />
  <path
     style="fill:#d40000"
     id="path14"
     fill="white"
     d="M192.944 115.625H127.25L160.246 275.561L192.944 115.625Z" />
  <path
     id="path16"
     fill="black"
     d="M201.907 115.625H244.192L168.523 279.001L201.907 115.625Z" />
  <path
     style="fill:#ff7f2a"
     id="path18"
     fill="white"
     d="M201.907 115.625H244.192L168.523 279.001L201.907 115.625Z" />
  <path
     id="path20"
     fill="black"
     d="M128.28 62.9994L191.566 62.9994L160.294 104.617L128.28 62.9994Z" />
  <path
     style="fill:#6c5353"
     id="path22"
     fill="white"
     d="M128.28 62.9994L191.566 62.9994L160.294 104.617L128.28 62.9994Z" />
  <path
     id="path24"
     fill="black"
     d="M240.752 106.68H169.211L201.419 65.0625L240.752 106.68Z" />
  <path
     style="fill:#ffd42a"
     id="path26"
     fill="white"
     d="M240.752 106.68H169.211L201.419 65.0625L240.752 106.68Z" />
</svg>
