<?xml version="1.0" encoding="UTF-8" standalone="no"?>
<svg
   xmlns:dc="http://purl.org/dc/elements/1.1/"
   xmlns:cc="http://creativecommons.org/ns#"
   xmlns:rdf="http://www.w3.org/1999/02/22-rdf-syntax-ns#"
   xmlns:svg="http://www.w3.org/2000/svg"
   xmlns="http://www.w3.org/2000/svg"
   xmlns:sodipodi="http://sodipodi.sourceforge.net/DTD/sodipodi-0.dtd"
   xmlns:inkscape="http://www.inkscape.org/namespaces/inkscape"
   inkscape:version="1.0 (4035a4fb49, 2020-05-01)"
   sodipodi:docname="search_night.svg"
   id="svg4"
   version="1.1"
   fill="none"
   viewBox="0 0 84 84"
   height="84"
   width="84">
  <metadata
     id="metadata10">
    <rdf:RDF>
      <cc:Work
         rdf:about="">
        <dc:format>image/svg+xml</dc:format>
        <dc:type
           rdf:resource="http://purl.org/dc/dcmitype/StillImage" />
      </cc:Work>
    </rdf:RDF>
  </metadata>
  <defs
     id="defs8" />
  <sodipodi:namedview
     inkscape:current-layer="svg4"
     inkscape:window-maximized="1"
     inkscape:window-y="-9"
     inkscape:window-x="-9"
     inkscape:cy="42"
     inkscape:cx="42"
     inkscape:zoom="9.8809524"
     showgrid="false"
     id="namedview6"
     inkscape:window-height="1001"
     inkscape:window-width="1920"
     inkscape:pageshadow="2"
     inkscape:pageopacity="0"
     guidetolerance="10"
     gridtolerance="10"
     objecttolerance="10"
     borderopacity="1"
     bordercolor="#666666"
     pagecolor="#ffffff" />
  <path
     style="fill:#0000ff"
     id="path2"
     fill="#585D60"
     d="M82.093 77.1272L61.4735 56.5009L62.79 54.6511C66.9783 48.7673 69.1926 41.8364 69.1926 34.6075C69.1926 15.525 53.6725 0 34.5963 0C15.52 0 0 15.525 0 34.6075C0 53.6899 15.52 69.215 34.5963 69.215C41.8228 69.215 48.7515 67.0013 54.6334 62.8103L56.4827 61.4934L77.1022 82.1209C77.7437 82.7599 78.6522 83.1264 79.5983 83.1264C80.5457 83.1264 81.4557 82.7599 82.0944 82.1196C82.7601 81.4538 83.1277 80.5678 83.1264 79.6241C83.1251 78.6803 82.7587 77.793 82.093 77.1272ZM34.595 7.05976C49.7795 7.05976 62.1338 19.4167 62.1338 34.6075C62.1338 49.7983 49.7808 62.1552 34.595 62.1552C19.4118 62.1552 7.05745 49.7983 7.05745 34.6075C7.05745 19.4167 19.4118 7.05976 34.595 7.05976Z" />
</svg>
