<?xml version="1.0" encoding="UTF-8" standalone="no"?>
<svg
   xmlns:dc="http://purl.org/dc/elements/1.1/"
   xmlns:cc="http://creativecommons.org/ns#"
   xmlns:rdf="http://www.w3.org/1999/02/22-rdf-syntax-ns#"
   xmlns:svg="http://www.w3.org/2000/svg"
   xmlns="http://www.w3.org/2000/svg"
   xmlns:sodipodi="http://sodipodi.sourceforge.net/DTD/sodipodi-0.dtd"
   xmlns:inkscape="http://www.inkscape.org/namespaces/inkscape"
   sodipodi:docname="avax_deep.svg"
   inkscape:version="1.0 (4035a4fb49, 2020-05-01)"
   id="svg3182"
   version="1.1"
   viewBox="0 0 266.6543 50.422024"
   height="50.422024mm"
   width="266.6543mm">
  <defs
     id="defs3176">
    <rect
       id="rect3236"
       height="23.434525"
       width="21.166668"
       y="99.899109"
       x="236.54034" />
  </defs>
  <sodipodi:namedview
     inkscape:window-maximized="0"
     inkscape:window-y="0"
     inkscape:window-x="32"
     inkscape:window-height="1030"
     inkscape:window-width="1313"
     showgrid="false"
     inkscape:document-rotation="0"
     inkscape:current-layer="layer1"
     inkscape:document-units="mm"
     inkscape:cy="433.85714"
     inkscape:cx="403.13207"
     inkscape:zoom="0.35"
     inkscape:pageshadow="2"
     inkscape:pageopacity="0.0"
     borderopacity="1.0"
     bordercolor="#666666"
     pagecolor="#ffffff"
     id="base" />
  <metadata
     id="metadata3179">
    <rdf:RDF>
      <cc:Work
         rdf:about="">
        <dc:format>image/svg+xml</dc:format>
        <dc:type
           rdf:resource="http://purl.org/dc/dcmitype/StillImage" />
        <dc:title></dc:title>
      </cc:Work>
    </rdf:RDF>
  </metadata>
  <g
     transform="translate(0.82869695,-93.851488)"
     id="layer1"
     inkscape:groupmode="layer"
     inkscape:label="Ebene 1">
    <path
       d="m 65.323193,125.45574 c -1.900158,-2.32843 -4.940121,-2.32843 -6.840282,0 l -11.997446,14.61905 c -1.900157,2.2902 -0.325796,4.19872 3.420142,4.19872 h 23.777852 c 3.800078,0 5.37444,-1.90852 3.47452,-4.19872 z"
       fill="black"
       id="path3117"
       style="fill:#ff7f2a;stroke-width:0.199114" />
    <path
       d="m 50.465823,107.79132 -6.243307,-7.74853 -2.660031,-3.320787 c -1.89992,-2.328372 -4.940125,-2.328372 -6.840281,0 L -0.02175448,139.58707 c -1.90006712,2.32826 -0.3257262,4.19855 3.47439638,4.19855 h 9.6631871 6.623101 1.140047 c 3.148725,0 7.057321,-1.56492 8.631683,-3.51151 l 20.955163,-25.49768 c 1.519983,-1.87029 1.519983,-5.03843 0,-6.98511 z"
       fill="#000000"
       id="path3119"
       style="fill:#782121;stroke-width:0.199114" />
    <path
       d="m 179.34243,125.23092 c -1.90016,-2.32843 -4.94037,-2.32843 -6.84028,0 l -11.99768,14.61904 c -1.89992,2.2902 -0.32557,4.19872 3.42014,4.19872 h 23.77809 c 3.80008,0 5.37444,-1.90852 3.47427,-4.19872 z"
       fill="#000000"
       id="path3121"
       style="fill:#0000ff;stroke-width:0.199114" />
    <path
       d="m 166.40269,108.24098 -6.24306,-7.74853 -2.66027,-3.320789 c -1.89992,-2.328372 -4.94013,-2.328372 -6.84005,0 l -34.68986,42.826829 c -1.90015,2.32843 -0.32579,4.19872 3.47453,4.19872 h 9.60882 6.62302 1.14004 c 3.14871,0 7.05731,-1.56492 8.63167,-3.51168 l 20.95516,-25.49768 c 1.51999,-1.83206 1.57437,-5.00019 0,-6.94687 z"
       fill="black"
       id="path3123"
       style="fill:#00ff00;stroke-width:0.199114" />
    <path
       d="m 134.64666,98.05019 c 1.89991,-2.328362 0.32555,-4.198702 -3.47452,-4.198702 h -23.77786 c -3.80031,0 -5.3203,1.87034 -3.42014,4.198702 l 11.99744,14.61906 c 1.90017,2.29037 4.99452,2.29037 6.84029,0 z"
       fill="black"
       id="path3125"
       style="fill:#800080;stroke-width:0.199114" />
    <path
       d="m 108.91569,129.84597 -6.24306,7.74846 -2.66004,3.32084 c -1.900155,2.32826 -4.940123,2.32826 -6.840275,0 L 58.428295,98.05024 c -1.900157,-2.328379 -0.325794,-4.198712 3.474281,-4.198712 h 9.663213 6.623243 1.14005 c 3.148485,0 7.057316,1.564972 8.631684,3.511653 l 20.954924,25.497669 c 1.52023,1.90836 1.57436,5.03836 0,6.98512 z"
       fill="black"
       id="path3127"
       style="fill:#ffe6d5;stroke-width:0.199114" />
    <text
       transform="scale(1.295354,0.77198972)"
       id="text3232"
       y="186.45273"
       x="149.03372"
       style="font-style:normal;font-variant:normal;font-weight:normal;font-stretch:normal;font-size:93.9253px;line-height:25;font-family:Stencil;-inkscape-font-specification:'Stencil, Normal';font-variant-ligatures:normal;font-variant-caps:normal;font-variant-numeric:normal;font-variant-east-asian:normal;fill:#24221c;stroke-width:0.234815"
       xml:space="preserve"><tspan
         style="font-style:normal;font-variant:normal;font-weight:normal;font-stretch:normal;font-size:93.9253px;font-family:Stencil;-inkscape-font-specification:'Stencil, Normal';font-variant-ligatures:normal;font-variant-caps:normal;font-variant-numeric:normal;font-variant-east-asian:normal;fill:#24221c;stroke-width:0.234815"
         y="186.45273"
         x="149.03372"
         id="tspan3230"
         sodipodi:role="line">X</tspan></text>
    <text
       style="font-size:10.5833px;line-height:25;font-family:sans-serif;white-space:pre;shape-inside:url(#rect3236);"
       id="text3234"
       xml:space="preserve" />
  </g>
</svg>
