<?xml version="1.0" encoding="UTF-8" standalone="no"?>
<svg
   xmlns:dc="http://purl.org/dc/elements/1.1/"
   xmlns:cc="http://creativecommons.org/ns#"
   xmlns:rdf="http://www.w3.org/1999/02/22-rdf-syntax-ns#"
   xmlns:svg="http://www.w3.org/2000/svg"
   xmlns="http://www.w3.org/2000/svg"
   xmlns:sodipodi="http://sodipodi.sourceforge.net/DTD/sodipodi-0.dtd"
   xmlns:inkscape="http://www.inkscape.org/namespaces/inkscape"
   sodipodi:docname="avax.svg"
   inkscape:version="1.0 (4035a4fb49, 2020-05-01)"
   id="svg3182"
   version="1.1"
   viewBox="0 0 70.688409 76.585373"
   height="76.585373mm"
   width="70.688408mm">
  <defs
     id="defs3176">
    <rect
       id="rect3236"
       height="23.434525"
       width="21.166668"
       y="99.899109"
       x="236.54034" />
  </defs>
  <sodipodi:namedview
     inkscape:window-maximized="0"
     inkscape:window-y="0"
     inkscape:window-x="32"
     inkscape:window-height="1030"
     inkscape:window-width="1313"
     showgrid="false"
     inkscape:document-rotation="0"
     inkscape:current-layer="layer1"
     inkscape:document-units="mm"
     inkscape:cy="534.74223"
     inkscape:cx="-337.52633"
     inkscape:zoom="0.35"
     inkscape:pageshadow="2"
     inkscape:pageopacity="0.0"
     borderopacity="1.0"
     bordercolor="#666666"
     pagecolor="#ffffff"
     id="base" />
  <metadata
     id="metadata3179">
    <rdf:RDF>
      <cc:Work
         rdf:about="">
        <dc:format>image/svg+xml</dc:format>
        <dc:type
           rdf:resource="http://purl.org/dc/dcmitype/StillImage" />
        <dc:title></dc:title>
      </cc:Work>
    </rdf:RDF>
  </metadata>
  <g
     transform="translate(-195.13717,-67.158976)"
     id="layer1"
     inkscape:groupmode="layer"
     inkscape:label="Ebene 1">
    <path
       d="m 68.165267,114.45285 c -1.873223,-3.68988 -4.870096,-3.68988 -6.743322,0 L 49.59456,137.61977 c -1.873223,3.62929 -0.321178,6.65374 3.371662,6.65374 h 23.440807 c 3.746212,0 5.298258,-3.02445 3.425269,-6.65374 z"
       fill="black"
       id="path3117"
       style="fill:#ff7f2a;stroke-width:0.248872" />
    <path
       d="M 53.518497,86.45991 47.363688,74.180756 44.741362,68.918273 c -1.872989,-3.689789 -4.8701,-3.689789 -6.743322,0 L 3.7465692,136.84687 c -1.8731341,3.68961 -0.3211091,6.65347 3.4251476,6.65347 h 9.5262142 6.52922 1.123887 c 3.104092,0 6.957285,-2.47994 8.509331,-5.56471 L 53.518497,97.529257 c 1.498438,-2.963863 1.498438,-7.984438 0,-11.069347 z"
       fill="#000000"
       id="path3119"
       style="fill:#782121;stroke-width:0.248872" />
    <path
       d="m 180.56831,114.09657 c -1.87323,-3.68988 -4.87034,-3.68988 -6.74332,0 l -11.82762,23.16691 c -1.87299,3.62929 -0.32095,6.65374 3.37166,6.65374 h 23.44104 c 3.74622,0 5.29826,-3.02445 3.42503,-6.65374 z"
       fill="#000000"
       id="path3121"
       style="fill:#0000ff;stroke-width:0.248872" />
    <path
       d="m 167.81199,87.172486 -6.15457,-12.279154 -2.62256,-5.262483 c -1.87299,-3.689789 -4.87011,-3.689789 -6.7431,0 l -34.19813,67.868001 c -1.87322,3.68988 -0.32118,6.65374 3.42527,6.65374 h 9.47262 6.52914 1.12388 c 3.10408,0 6.95728,-2.47993 8.50932,-5.56498 l 20.65813,-40.406367 c 1.49844,-2.903273 1.55205,-7.923848 0,-11.008757 z"
       fill="black"
       id="path3123"
       style="fill:#00ff00;stroke-width:0.248872" />
    <path
       d="m 136.50609,71.02306 c 1.87298,-3.689773 0.32094,-6.653715 -3.42527,-6.653715 h -23.44081 c -3.74644,0 -5.24489,2.963942 -3.37166,6.653715 l 11.82738,23.166943 c 1.87323,3.629554 4.92372,3.629554 6.74333,0 z"
       fill="black"
       id="path3125"
       style="fill:#800080;stroke-width:0.248872" />
    <path
       d="m 111.13985,121.41007 -6.15457,12.27905 -2.62233,5.26256 c -1.87322,3.68961 -4.870098,3.68961 -6.743315,0 L 61.368103,71.023139 c -1.873223,-3.6898 -0.321176,-6.65373 3.425034,-6.65373 h 9.526239 6.52936 1.12389 c 3.103856,0 6.95728,2.480023 8.509332,5.564943 L 111.13985,110.3407 c 1.49868,3.02419 1.55204,7.98433 0,11.06937 z"
       fill="black"
       id="path3127"
       style="fill:#ffe6d5;stroke-width:0.248872" />
    <text
       transform="scale(1.0216776,0.97878235)"
       id="text3232"
       y="146.86038"
       x="189.96501"
       style="font-style:normal;font-variant:normal;font-weight:normal;font-stretch:normal;font-size:117.397px;line-height:25;font-family:Stencil;-inkscape-font-specification:'Stencil, Normal';font-variant-ligatures:normal;font-variant-caps:normal;font-variant-numeric:normal;font-variant-east-asian:normal;fill:#24221c;stroke-width:0.293495"
       xml:space="preserve"><tspan
         style="font-style:normal;font-variant:normal;font-weight:normal;font-stretch:normal;font-size:117.397px;font-family:Stencil;-inkscape-font-specification:'Stencil, Normal';font-variant-ligatures:normal;font-variant-caps:normal;font-variant-numeric:normal;font-variant-east-asian:normal;fill:#24221c;stroke-width:0.293495"
         y="146.86038"
         x="189.96501"
         id="tspan3230"
         sodipodi:role="line">X</tspan></text>
    <text
       style="font-size:10.5833px;line-height:25;font-family:sans-serif;white-space:pre;shape-inside:url(#rect3236);"
       id="text3234"
       xml:space="preserve" />
  </g>
</svg>
